# xmcd
# 
# Track frame offsets:
#     150
#     19153
#     37173
#     75635
#     93168
#     120376
#     139758
#     165523
#     184794
#     207408
#     231854
#     250469
#     267409
#     288270
#     302775
#     322375
#     344775
# 
# Disc length: 4767
# 
# Revision: 2
# Processed by: cddbd v1.5.2PL0 Copyright (c) Steve Scherf et al.
# Submitted via: fre:ac v1.1beta1
# 
DISCID=00129d11
DTITLE=Various Artist - Real Funky Blues 02
DYEAR=2016
DGENRE=Blues
TTITLE0=Johnny Rawls - My Turn To Win
TTITLE1=U. P. Wilson and Bobby Gilmore - I Just Can't Help It
TTITLE2=Johnny Mars - Desert Island
TTITLE3=Kenny 'Blue' Ray - Bluesman For Life
TTITLE4=Ike Cosse - Ike's Blues
TTITLE5=Hubert Sumlin - Spanish Greens
TTITLE6=Eddie Blue Lester - Dirty Man
TTITLE7=Alanda Williams - Big Butt Woman
TTITLE8=Kirk Fletcher - What IS Going On
TTITLE9=Lowell Fulson - Lowell's Jump
TTITLE10=Lucky Lopex Evans - Pay Check
TTITLE11=Tamara Peterson - How Do I, Why Do I (Love)
TTITLE12=U. P. Wilson - Made Up My Mind
TTITLE13=Andrew Jr. Boy Jones - Big Leg, Heavy Bottom
TTITLE14=Johnny Rawls - Should Be At Work
TTITLE15=Joe Coronado and The Texas Beat - Let Me Tell You About My Baby
TTITLE16=Eddie C. Campbell - Confusion Blues
EXTD=YEAR: 2016
EXTT0=
EXTT1=
EXTT2=
EXTT3=
EXTT4=
EXTT5=
EXTT6=
EXTT7=
EXTT8=
EXTT9=
EXTT10=
EXTT11=
EXTT12=
EXTT13=
EXTT14=
EXTT15=
EXTT16=
PLAYORDER=
